<svg height="512pt" viewBox="-34 0 512 512.00391" width="512pt" xmlns="http://www.w3.org/2000/svg"><path d="m132.542969 391.742188c4.542969-4.464844 10.214843-7.613282 16.410156-9.105469 15.027344-3.519531 28.808594-11.082031 39.851563-21.867188l170.152343-165.753906c11.070313-10.75 18.992188-24.324219 22.90625-39.253906 1.65625-6.148438 4.949219-11.734375 9.53125-16.160157l16.007813-15.589843c4.910156-5.046875 12.417968-6.554688 18.898437-3.804688s10.605469 9.199219 10.386719 16.238281c-1.023438 36.015626-16.097656 70.199219-42 95.246094l-170.15625 165.753906c-25.722656 25.222657-60.292969 39.390626-96.324219 39.464844-7.039062.035156-13.378906-4.257812-15.960937-10.808594-2.582032-6.550781-.875-14.015624 4.296875-18.792968zm0 0" fill="#e3e7f2"/><path d="m412.625 62.042969-66.988281 66.984375c-8.207031 8.105468-21.402344 8.105468-29.609375 0l-6.65625-6.65625c-2.574219-2.5625-4.402344-5.777344-5.289063-9.300782-2.019531-7.226562 0-14.984374 5.289063-20.308593l66.988281-66.988281c6.535156-6.472657 16.519531-7.960938 24.660156-3.667969 1.824219.96875 3.492188 2.207031 4.949219 3.667969l6.65625 6.65625c8.105469 8.207031 8.105469 21.40625 0 29.613281zm0 0" fill="#a4c2f7"/><path d="m128.976562 345.605469-66.988281 66.984375c-3.902343 3.933594-9.21875 6.144531-14.761719 6.144531-5.542968 0-10.855468-2.210937-14.761718-6.144531l-6.65625-6.65625c-2.625-2.535156-4.488282-5.757813-5.375-9.300782-2-7.21875.058594-14.949218 5.375-20.222656l66.988281-66.988281c6.480469-6.515625 16.472656-8.007813 24.574219-3.667969 1.828125.960938 3.496094 2.199219 4.949218 3.667969l6.65625 6.65625c3.933594 3.90625 6.144532 9.21875 6.144532 14.761719 0 5.542968-2.210938 10.859375-6.144532 14.765625zm0 0" fill="#a4c2f7"/><path d="m395.558594 42.328125-66.988282 66.988281c-6.445312 6.511719-16.390624 8.035156-24.488281 3.753906-2.019531-7.226562 0-14.984374 5.289063-20.308593l66.988281-66.988281c6.535156-6.472657 16.519531-7.960938 24.660156-3.667969 1.925781 7.234375-.15625 14.941406-5.460937 20.222656zm0 0" fill="#d4e1f4"/><path d="m111.996094 325.890625-66.988282 66.988281c-6.480468 6.507813-16.445312 8.03125-24.574218 3.753906-2-7.21875.058594-14.949218 5.375-20.222656l66.988281-66.988281c6.480469-6.515625 16.472656-8.007813 24.574219-3.667969 1.988281 7.191406-.070313 14.894532-5.375 20.136719zm0 0" fill="#d4e1f4"/><path d="m53.046875 300.890625c4.394531-4.359375 7.484375-9.855469 8.925781-15.875 3.394532-14.632813 10.820313-28.023437 21.4375-38.65625l162.984375-162.917969c10.613281-10.628906 24-18.0625 38.632813-21.460937 6.027344-1.4375 11.53125-4.53125 15.894531-8.933594l15.363281-15.359375c4.871094-4.941406 6.28125-12.335938 3.566406-18.722656-2.71875-6.390625-9.019531-10.507813-15.957031-10.425782-35.160156-.125-68.910156 13.808594-93.742187 38.695313l-162.917969 162.921875c-24.894531 24.824219-38.828125 58.578125-38.699219 93.738281-.0625 6.941407 4.070313 13.234375 10.464844 15.9375 6.398438 2.699219 13.789062 1.269531 18.722656-3.617187zm0 0" fill="#e3e7f2"/><path d="m396.496094 469.507812c2.707031 7.832032 1.457031 16.488282-3.355469 23.234376-4.8125 6.742187-12.59375 10.742187-20.878906 10.726562h-129.195313c-8.035156 0-15.613281-3.757812-20.480468-10.152344-6.3125-8.449218-15.871094-21.417968-26.28125-36.777344l-54.527344-98.136718c-3.113282-8.191406-4.875-16.839844-5.207032-25.597656 0-25.601563 8.535157-68.265626 42.667969-68.265626 0 0 6.828125-34.21875 26.707031-41.386718 2.378907-.867188 4.894532-1.300782 7.425782-1.28125h17.066406s6.914062-20.652344 20.652344-24.832032c1.597656-.519531 3.269531-.777343 4.949218-.769531h13.480469c1.519531-.03125 3.039063.113281 4.523438.425781 6.109375.894532 11.765625 3.738282 16.128906 8.109376 0 0 8.53125-17.066407 51.199219-17.066407h42.667968c25.597657 0 51.199219 42.664063 51.199219 119.464844 0 42.667969-51.199219 59.734375-51.199219 110.933594 1.734376 17.621093 5.929688 34.914062 12.457032 51.371093zm0 0" fill="#a4c2f7"/><path d="m371.492188 469.507812c2.746093 7.816407 1.519531 16.480469-3.28125 23.234376-4.800782 6.75-12.582032 10.753906-20.867188 10.726562h-104.277344c-8.035156 0-15.613281-3.757812-20.480468-10.152344-6.3125-8.449218-15.871094-21.417968-26.28125-36.777344l-54.527344-98.136718c-3.113282-8.191406-4.875-16.839844-5.207032-25.597656 0-25.601563 8.535157-68.265626 42.667969-68.265626 0 0 6.828125-34.21875 26.707031-41.386718 2.378907-.867188 4.894532-1.300782 7.425782-1.28125h17.066406s6.914062-20.652344 20.652344-24.832032c5.332031 1.199219 10.21875 3.894532 14.078125 7.765626 2.179687-3.449219 5.246093-6.246094 8.875-8.109376 6.109375.894532 11.765625 3.738282 16.128906 8.109376 0 0 8.53125-17.066407 51.199219-17.066407h17.664062c25.601563 0 51.199219 42.664063 51.199219 119.464844 0 42.667969-51.199219 59.734375-51.199219 110.933594 1.777344 17.613281 5.96875 34.898437 12.457032 51.371093zm0 0" fill="#d4e1f4"/><path d="m316.199219 37.722656-15.277344 15.359375c-4.386719 4.382813-9.914063 7.457031-15.957031 8.875-14.613282 3.425781-27.972656 10.875-38.570313 21.503907l-162.984375 162.898437c-10.609375 10.636719-18.027344 24.027344-21.421875 38.65625-1.449219 6.023437-4.550781 11.523437-8.957031 15.875l-15.277344 15.359375c-4.933594 4.894531-12.34375 6.320312-18.742187 3.605469-6.402344-2.714844-10.527344-9.027344-10.441407-15.980469-.011718-.796875.015626-1.59375.085938-2.386719 6.695312 4.402344 15.574219 3.433594 21.164062-2.304687l15.359376-15.359375c4.382812-4.359375 7.457031-9.859375 8.875-15.875 3.421874-14.636719 10.871093-28.027344 21.503906-38.65625l162.902344-162.898438c10.625-10.632812 24.015624-18.082031 38.652343-21.503906 6.019531-1.417969 11.515625-4.492187 15.875-8.875l15.359375-15.359375c2.597656-2.554688 4.300782-5.875 4.863282-9.472656 4.40625 2.761718 7.308593 7.382812 7.890624 12.546875.582032 5.167969-1.222656 10.316406-4.902343 13.992187zm0 0" fill="#d4e1f4"/><path d="m15.621094 317.800781c6.71875 5.125 16.195312 4.460938 22.132812-1.550781l.855469-.855469c-2.890625-3.117187-4.5-7.214843-4.496094-11.46875-.132812-35.160156 13.800781-68.910156 38.695313-93.738281l162.945312-162.953125c20.222656-20.226563 46.496094-33.296875 74.828125-37.230469-2.109375-.933594-4.382812-1.429687-6.6875-1.464844-35.160156-.125-68.910156 13.808594-93.742187 38.695313l-162.917969 162.921875c-24.894531 24.824219-38.828125 58.578125-38.699219 93.738281-.039062 5.511719 2.601563 10.699219 7.085938 13.90625zm0 0" fill="#fff"/><path d="m25.808594 405.933594 6.65625 6.65625c7.445312 7.464844 19.304687 8.15625 27.570312 1.613281-.6875-.496094-1.347656-1.035156-1.96875-1.613281l-6.65625-6.65625c-2.628906-2.535156-4.492187-5.757813-5.378906-9.300782-1.996094-7.21875.058594-14.949218 5.378906-20.222656l66.984375-66.988281c.625-.609375 1.285157-1.179687 1.980469-1.707031-.9375-.753906-1.945312-1.417969-3.003906-1.988282-8.101563-4.339843-18.09375-2.847656-24.574219 3.671876l-66.988281 67.011718c-5.316406 5.273438-7.375 13.003906-5.375 20.222656.886718 3.542969 2.75 6.765626 5.375 9.300782zm0 0" fill="#fff"/><g fill="#428dff"><path d="m411.984375 19.777344c-11.503906-11.472656-30.121094-11.472656-41.625 0l-66.988281 66.984375c-11.476563 11.503906-11.476563 30.128906 0 41.632812l6.648437 6.640625c11.5 11.480469 30.125 11.480469 41.625 0l66.980469-66.988281c11.472656-11.503906 11.472656-30.121094 0-41.625zm-5.425781 36.207031-66.980469 66.984375c-4.835937 4.820312-12.65625 4.820312-17.492187 0l-6.648438-6.636719c-4.816406-4.835937-4.816406-12.660156 0-17.496093l66.988281-66.984376c4.835938-4.816406 12.65625-4.816406 17.492188 0l6.640625 6.644532c4.8125 4.835937 4.8125 12.652344 0 17.488281zm0 0"/><path d="m303.910156.00390625c-37.457031-.28125025-73.441406 14.57421875-99.789062 41.19921875l-162.917969 162.917969c-26.546875 26.402344-41.386719 62.351562-41.19921875 99.789062.00390625 14.277344 11.56249975 25.855469 25.83984375 25.890625 6.742188-.019531 13.195312-2.742187 17.917969-7.550781l15.359375-15.363281c5.523437-5.488281 9.40625-12.410157 11.207031-19.984375 3.042969-13.082032 9.691406-25.046875 19.191406-34.542969l162.847657-162.882813c9.507812-9.496093 21.476562-16.144531 34.5625-19.191406 7.578124-1.792968 14.503906-5.675781 19.992187-11.203125l15.359375-15.363281c7.402344-7.226562 9.613281-18.25 5.574219-27.773438-4.007813-9.683593-13.46875-15.9804682-23.945313-15.94140575zm6.261719 31.68359375-15.359375 15.359375c-3.242188 3.273437-7.335938 5.578125-11.816406 6.65625-16.175782 3.773437-30.972656 11.996094-42.71875 23.742187l-162.84375 162.882813c-11.746094 11.746094-19.972656 26.542969-23.746094 42.71875-1.070312 4.480469-3.375 8.570313-6.648438 11.808594l-15.359374 15.359375c-2.386719 2.464844-6.042969 3.203125-9.199219 1.863281-3.324219-1.339844-5.480469-4.585937-5.417969-8.167969-.175781-32.910156 12.867188-64.515625 36.207031-87.722656l162.917969-162.917969c23.136719-23.257812 54.617188-36.292969 87.421875-36.199219h.265625c3.582031-.058593 6.832031 2.09375 8.167969 5.417969 1.335937 3.160157.59375 6.8125-1.871094 9.199219zm0 0"/><path d="m443.515625 125.691406c-1.023437-9.628906-7.53125-17.796875-16.691406-20.941406-9.355469-3.371094-19.816407-1.015625-26.828125 6.035156l-12.101563 12.097656c-6.96875 7.085938-11.300781 16.34375-12.277343 26.234376-1.246094 10.695312-4.871094 20.972656-10.609376 30.085937h-23.671874c-29.464844 0-44.722657 7.808594-52.257813 14.125-5.875-3.636719-12.640625-5.570313-19.550781-5.589844h-13.523438c-17.195312 0-27.117187 16.375-31.359375 25.597657h-11.308593c-25.480469 0-36.980469 29.699218-40.882813 43.136718-23.894531 3.414063-36.597656 24.933594-41.703125 49.261719l-2.363281-2.351563c-11.644531-11.128906-29.980469-11.128906-41.625 0l-66.984375 66.96875c-11.480469 11.5-11.480469 30.121094 0 41.625l6.636718 6.648438c11.503907 11.476562 30.128907 11.476562 41.632813 0l63.675781-63.632812c.597656 2.019531 1.214844 4.058593 1.957032 6.226562.933593 2.960938 3.398437 5.179688 6.4375 5.796875 3.042968.617187 6.179687-.464844 8.191406-2.828125 2.011718-2.359375 2.585937-5.625 1.496094-8.53125-2.78125-7.316406-4.378907-15.03125-4.734376-22.851562 0-5.863282.964844-55.253907 30.269532-59.332032l43.3125 55.6875c4.332031 5.667969 3.355468 13.753906-2.203125 18.226563-5.554688 4.472656-13.664063 3.699219-18.277344-1.738281l-29.480469-35.371094c-3.050781-3.488282-8.328125-3.902344-11.886718-.9375-3.558594 2.964844-4.101563 8.230468-1.222657 11.859375l29.476563 35.378906c6.660156 8.105469 17.078125 12.144531 27.464844 10.644531 10.386718-1.5 19.234374-8.316406 23.332031-17.976562.980469.398437 2.023437.613281 3.082031.625h9.011719c7.074219-.011719 13.957031-2.304688 19.625-6.535156l7.1875-5.386719c-1.058594 3.898437-1.628907 7.910156-1.707031 11.945312.007812 4.027344.347656 8.046875 1.015624 12.015625-7.339843 5.710938-26.617187 23.039063-26.617187 47.71875 0 4.714844 3.820313 8.535156 8.535156 8.535156 4.710938 0 8.53125-3.820312 8.53125-8.535156.847657-11.519531 6.222657-22.234375 14.941407-29.804687 5.101562 11.273437 13.019531 21.042969 22.988281 28.371093 2.539062 1.753907 5.824219 2.003907 8.597656.65625 2.769531-1.351562 4.597656-4.09375 4.777344-7.175781.179687-3.078125-1.3125-6.015625-3.910157-7.679687-13.761718-10.492188-21.816406-26.820313-21.777343-44.125 0-28.253906 41.863281-63.546875 71.144531-67.832032 1.695312 5.230469 4.476562 10.046876 8.15625 14.132813 1.582031 1.585937 3.730469 2.480469 5.972656 2.472656 3.429688.019531 6.539063-2.015625 7.894532-5.164062 1.351562-3.152344.6875-6.808594-1.691407-9.28125-4.324219-5.597657-6.5-12.5625-6.125-19.628907-.371093-7.0625 1.800781-14.023437 6.117188-19.625 2.992187-3.402343 2.804687-8.546874-.421875-11.722656-3.230469-3.175781-8.378906-3.273437-11.730469-.226562-3.734375 4.164062-6.539063 9.070312-8.234375 14.398437-40.917969-1.707031-60.644531-20.933593-62.359375-39.800781 3.300781-3.394531 14.179687-11.324219 42.476563-11.324219h42.667968c17.203125 0 42.667969 35.261719 42.667969 110.933594 0 17.367187-10.191406 30.046875-21.976563 44.75-13.703124 17.066406-29.226562 36.417969-29.226562 66.183594 1.605469 18.609375 5.972656 36.875 12.964844 54.195312 1.832031 5.167969 1.019531 10.90625-2.175782 15.359375-3.183593 4.5625-8.402343 7.269532-13.960937 7.246094h-129.238281c-5.359375.003906-10.414063-2.503906-13.652344-6.777344-6.136719-8.164062-15.652344-21.117187-26.136719-36.425781-1.683593-2.609375-4.652343-4.097656-7.746093-3.886719-3.097657.210938-5.835938 2.082032-7.152344 4.894532-1.316406 2.808593-1.003906 6.113281.816406 8.625 10.667969 15.574218 20.335938 28.738281 26.574219 37.042968 6.46875 8.554688 16.570312 13.585938 27.296875 13.59375h129.238281c11.078125-.007812 21.464844-5.378906 27.878906-14.414062 6.445313-8.960938 8.074219-20.519532 4.359375-30.914063-6.417968-15.484375-10.464844-31.847656-12-48.539062 0-23.765625 12.367188-39.183594 25.472656-55.507813 12.648438-15.761718 25.730469-32.0625 25.730469-55.425781 0-43.167969-7.484375-74.734375-18.484375-95.75 15.035156-25.925781 21.429688-55.960937 18.261719-85.761719zm-320.554687 213.886719-66.980469 66.988281c-4.832031 4.824219-12.65625 4.824219-17.492188 0l-6.648437-6.648437c-4.816406-4.835938-4.816406-12.65625 0-17.492188l66.988281-66.980469c2.320313-2.320312 5.464844-3.625 8.746094-3.625s6.429687 1.304688 8.746093 3.625l6.640626 6.640626c4.820312 4.835937 4.820312 12.65625 0 17.492187zm144.160156-17.253906-9.804688 7.355469c-2.710937 2.027343-6 3.121093-9.386718 3.125h-8.992188c-.289062.042968-.574219.101562-.855469.179687-.695312-5.210937-2.757812-10.144531-5.972656-14.304687l-43.65625-56.140626c3.03125-11.175781 11.453125-32.136718 24.882813-32.136718h12.382812l45.226562 71.050781c4.339844 6.894531 2.679688 15.964844-3.824218 20.871094zm23.144531-14.019531c-.207031-5.679688-1.910156-11.203126-4.933594-16.015626l-45.363281-71.273437c2.773438-6.109375 8.722656-16.210937 16.035156-16.210937h13.523438c4.453125.011718 8.777344 1.480468 12.316406 4.179687 1.40625 13.226563 7.785156 25.429687 17.84375 34.132813l16.375 40.960937c-9.679688 6.84375-18.359375 14.996094-25.796875 24.226563zm68.179687-43.015626c-9.675781 1.703126-19.007812 4.96875-27.636718 9.667969l-7.015625-17.535156c11.128906 4.023437 22.804687 6.328125 34.628906 6.824219v.28125c-.019531.273437.023437.496094.023437.761718zm56.152344-69.8125c-1.140625-1.355468-2.324218-2.628906-3.550781-3.824218-.488281-.476563-.992187-.910156-1.496094-1.363282-1.109375-1.023437-2.242187-1.988281-3.410156-2.875-.386719-.300781-.769531-.597656-1.160156-.855468-2.996094-2.199219-6.285157-3.96875-9.773438-5.253906-.304687-.121094-.613281-.214844-.929687-.324219-1.394532-.46875-2.820313-.84375-4.265625-1.121094-.300781-.058594-.589844-.136719-.855469-.175781-1.515625-.273438-3.050781-.433594-4.589844-.480469 4.195313-8.882813 6.902344-18.398437 8.011719-28.160156.554687-6.046875 3.160156-11.726563 7.382813-16.09375l12.132812-12.066407c2.382812-2.378906 5.929688-3.160156 9.089844-2.003906 2.964844.960938 5.082031 3.582032 5.402344 6.679688 2.488281 23.316406-1.667969 46.863281-11.988282 67.917968zm0 0"/><path d="m134.984375 399.96875c4.359375-4.226562 10.03125-6.832031 16.078125-7.390625.542969-.058594 1.089844-.144531 2.097656-.3125 8.878906-.675781 17.222656-4.492187 23.542969-10.761719 2.21875-2.144531 3.109375-5.316406 2.328125-8.300781-.78125-2.980469-3.113281-5.3125-6.09375-6.09375-2.984375-.78125-6.15625.109375-8.300781 2.328125-3.214844 3.179688-7.398438 5.207031-11.886719 5.761719-.492188-.015625-.980469.011719-1.46875.082031l-2.148438.34375c-9.882812.980469-19.132812 5.3125-26.214843 12.277344l-12.132813 12.128906c-7.050781 7.007812-9.40625 17.464844-6.042968 26.820312 3.144531 9.164063 11.3125 15.679688 20.949218 16.707032 4.875.523437 9.773438.785156 14.675782.785156 1.792968 0 3.578124 0 5.335937-.101562 37.265625 0 81.066406-43.835938 82.867187-45.707032 2.316407-2.128906 3.273438-5.363281 2.488282-8.410156-.785156-3.050781-3.1875-5.417969-6.246094-6.164062-3.058594-.742188-6.277344.257812-8.378906 2.601562-11.1875 11.300781-45.710938 40.636719-71.082032 40.644531-5.949218.238281-11.90625.039063-17.824218-.597656-3.101563-.320313-5.722656-2.4375-6.691406-5.398437-1.152344-3.164063-.367188-6.710938 2.011718-9.089844zm0 0"/></g></svg>